<svg width="15" height="15" viewBox="0 0 15 15" fill="none" xmlns="http://www.w3.org/2000/svg">
<g clip-path="url(#clip0_1198_8156)">
<path d="M8.4375 3.20239V10.3127C8.4375 10.8313 8.01855 11.2502 7.5 11.2502C6.98145 11.2502 6.5625 10.8313 6.5625 10.3127V3.20239L4.41211 5.35278C4.0459 5.71899 3.45117 5.71899 3.08496 5.35278C2.71875 4.98657 2.71875 4.39185 3.08496 4.02563L6.83496 0.275635C7.20117 -0.0905762 7.7959 -0.0905762 8.16211 0.275635L11.9121 4.02563C12.2783 4.39185 12.2783 4.98657 11.9121 5.35278C11.5459 5.71899 10.9512 5.71899 10.585 5.35278L8.4375 3.20239ZM1.875 10.3127H5.625C5.625 11.3469 6.46582 12.1877 7.5 12.1877C8.53418 12.1877 9.375 11.3469 9.375 10.3127H13.125C14.1592 10.3127 15 11.1536 15 12.1877V13.1252C15 14.1594 14.1592 15.0002 13.125 15.0002H1.875C0.84082 15.0002 0 14.1594 0 13.1252V12.1877C0 11.1536 0.84082 10.3127 1.875 10.3127ZM12.6562 13.3596C12.8427 13.3596 13.0216 13.2855 13.1534 13.1537C13.2853 13.0218 13.3594 12.843 13.3594 12.6565C13.3594 12.47 13.2853 12.2912 13.1534 12.1593C13.0216 12.0274 12.8427 11.9534 12.6562 11.9534C12.4698 11.9534 12.2909 12.0274 12.1591 12.1593C12.0272 12.2912 11.9531 12.47 11.9531 12.6565C11.9531 12.843 12.0272 13.0218 12.1591 13.1537C12.2909 13.2855 12.4698 13.3596 12.6562 13.3596Z" fill="#3BD3A7"/>
</g>
<defs>
<clipPath id="clip0_1198_8156">
<rect width="15" height="15" fill="white"/>
</clipPath>
</defs>
</svg>
